# ProBuilder 4.4.0
# https://unity3d.com/unity/features/worldbuilding/probuilder
# 09/03/2021 14:48:38

mtllib ./Arch.mtl
o Arch

g Arch
v 0 0 0
v 0.01643419 0.3135854 0
v 0 0 1
v 0.01643419 0.3135854 1
v 0.1656127 0.2979061 0
v 0.1500001 0 0
v 0.1656127 0.2979061 1
v 0.1500001 0 1
v 0.065557 0.6237351 0
v 0.065557 0.6237351 1
v 0.2122793 0.5925483 0
v 0.2122793 0.5925483 1
v 0.1468303 0.927051 0
v 0.1468303 0.927051 1
v 0.289489 0.8806984 0
v 0.289489 0.8806984 1
v 0.2593637 1.22021 0
v 0.2593637 1.22021 1
v 0.3963957 1.159199 0
v 0.3963957 1.159199 1
v 0.4019239 1.5 0
v 0.4019239 1.5 1
v 0.5318277 1.425 0
v 0.5318277 1.425 1
v 0.5729489 1.763356 0
v 0.5729489 1.763356 1
v 0.6943016 1.675188 0
v 0.6943016 1.675188 1
v 0.7705655 2.007392 0
v 0.7705655 2.007392 1
v 0.8820374 1.907022 0
v 0.8820374 1.907022 1
v 0.9926083 2.229434 0
v 0.9926083 2.229434 1
v 1.092978 2.117963 0
v 1.092978 2.117963 1
v 1.236644 2.427051 0
v 1.236644 2.427051 1
v 1.324812 2.305698 0
v 1.324812 2.305698 1
v 1.5 2.598076 0
v 1.5 2.598076 1
v 1.575 2.468173 0
v 1.575 2.468173 1
v 1.77979 2.740636 0
v 1.77979 2.740636 1
v 1.840801 2.603605 0
v 1.840801 2.603605 1
v 2.072949 2.85317 0
v 2.072949 2.85317 1
v 2.119302 2.710511 0
v 2.119302 2.710511 1
v 2.376265 2.934443 0
v 2.376265 2.934443 1
v 2.407452 2.787721 0
v 2.407452 2.787721 1
v 2.686415 2.983566 0
v 2.686415 2.983566 1
v 2.702094 2.834387 0
v 2.702094 2.834387 1
v 3 3 0
v 3 3 1
v 3 2.85 0
v 3 2.85 1
v 3.313586 2.983566 0
v 3.313586 2.983566 1
v 3.297906 2.834387 0
v 3.297906 2.834387 1
v 3.623735 2.934443 0
v 3.623735 2.934443 1
v 3.592548 2.787721 0
v 3.592548 2.787721 1
v 3.927051 2.85317 0
v 3.927051 2.85317 1
v 3.880698 2.710511 0
v 3.880698 2.710511 1
v 4.22021 2.740636 0
v 4.22021 2.740636 1
v 4.159199 2.603605 0
v 4.159199 2.603605 1
v 4.5 2.598076 0
v 4.5 2.598076 1
v 4.425 2.468172 0
v 4.425 2.468172 1
v 4.763355 2.427051 0
v 4.763355 2.427051 1
v 4.675188 2.305698 0
v 4.675188 2.305698 1
v 5.007392 2.229434 0
v 5.007392 2.229434 1
v 4.907022 2.117963 0
v 4.907022 2.117963 1
v 5.229434 2.007392 0
v 5.229434 2.007392 1
v 5.117963 1.907022 0
v 5.117963 1.907022 1
v 5.427051 1.763355 0
v 5.427051 1.763355 1
v 5.305698 1.675188 0
v 5.305698 1.675188 1
v 5.598076 1.5 0
v 5.598076 1.5 1
v 5.468172 1.425 0
v 5.468172 1.425 1
v 5.740636 1.22021 0
v 5.740636 1.22021 1
v 5.603604 1.159199 0
v 5.603604 1.159199 1
v 5.853169 0.9270511 0
v 5.853169 0.9270511 1
v 5.710511 0.8806985 0
v 5.710511 0.8806985 1
v 5.934443 0.6237348 0
v 5.934443 0.6237348 1
v 5.787721 0.5925481 0
v 5.787721 0.5925481 1
v 5.983566 0.3135855 0
v 5.983566 0.3135855 1
v 5.834387 0.2979062 0
v 5.834387 0.2979062 1
v 6 -2.622683E-07 0
v 6 -2.622683E-07 1
v 5.85 -2.491549E-07 0
v 5.85 -2.491549E-07 1

vt 0 0
vt 0 0.3140157
vt 1 0
vt 1 0.3140157
vt 0 0.3061653
vt 0 0.0078504
vt -1 0.3061653
vt -1 0.0078504
vt 0 1
vt 0.1500001 1
vt 0.1500001 0
vt 0 0.3122955
vt 0 0.6263112
vt 1 0.3122955
vt 1 0.6263112
vt 0 0.6184608
vt 0 0.3201459
vt -1 0.6184608
vt -1 0.3201459
vt 0 0.6194492
vt 0 0.933465
vt 1 0.6194492
vt 1 0.933465
vt 0 0.9256147
vt 0 0.6272997
vt -1 0.9256147
vt -1 0.6272997
vt 0 0.9180959
vt 0 1.232112
vt 1 0.9180959
vt 1 1.232112
vt 0 1.224261
vt -1 1.224261
vt 0 1.204964
vt 0 1.518979
vt 1 1.204964
vt 1 1.518979
vt 0 1.511129
vt 0 1.212814
vt -1 1.511129
vt -1 1.212814
vt 0 1.47691
vt 0 1.790925
vt 1 1.47691
vt 1 1.790925
vt 0 1.783075
vt 0 1.48476
vt -1 1.783075
vt -1 1.48476
vt 0 1.730953
vt 0 2.044969
vt 1 1.730953
vt 1 2.044969
vt 0 2.037119
vt 0 1.738804
vt -1 2.037119
vt -1 1.738804
vt -1.964312 0
vt -2.278328 0
vt -1.964312 1
vt -2.278328 1
vt 2.270478 0
vt 1.972163 0
vt 2.270478 1
vt 1.972163 1
vt -2.174431 0
vt -2.488447 0
vt -2.174431 1
vt -2.488447 1
vt 2.480596 0
vt 2.182281 0
vt 2.480596 1
vt 2.182281 1
vt -2.359003 0
vt -2.673019 0
vt -2.359003 1
vt -2.673019 1
vt 2.665169 0
vt 2.366854 0
vt 2.665169 1
vt 2.366854 1
vt -2.516011 0
vt -2.830027 0
vt -2.516011 1
vt -2.830027 1
vt 2.822177 0
vt 2.523862 0
vt 2.822177 1
vt 2.523862 1
vt -2.643735 0
vt -2.957751 0
vt -2.643735 1
vt -2.957751 1
vt 2.949898 0
vt 2.651583 0
vt 2.949898 1
vt 2.651583 1
vt -2.74077 0
vt -3.054785 0
vt -2.74077 1
vt -3.054785 1
vt 3.046936 0
vt 2.748621 0
vt 3.046936 1
vt 2.748621 1
vt -2.806057 0
vt -3.120072 0
vt -2.806057 1
vt -3.120072 1
vt 3.112222 0
vt 2.813907 0
vt 3.112222 1
vt 2.813907 1
vt -2.83888 0
vt -3.152896 0
vt -2.83888 1
vt -3.152896 1
vt 3.145046 0
vt 2.846731 0
vt 3.145046 1
vt 2.846731 1
vt 0 -1.73095
vt 0 -2.044966
vt -1 -1.73095
vt -1 -2.044966
vt 0 -2.037114
vt 0 -1.738799
vt 1 -2.037114
vt 1 -1.738799
vt 0 -1.476908
vt 0 -1.790923
vt -1 -1.476908
vt -1 -1.790923
vt 0 -1.783073
vt 0 -1.484759
vt 1 -1.783073
vt 1 -1.484759
vt 0 -1.204965
vt 0 -1.518981
vt -1 -1.204965
vt -1 -1.518981
vt 0 -1.511128
vt 0 -1.212813
vt 1 -1.511128
vt 1 -1.212813
vt 0 -0.9180965
vt 0 -1.232112
vt -1 -0.9180965
vt -1 -1.232112
vt 0 -1.22427
vt 0 -0.925955
vt 1 -1.22427
vt 1 -0.925955
vt 0 -0.6194531
vt 0 -0.9334692
vt -1 -0.6194531
vt -1 -0.9334692
vt 0 -0.6272959
vt 1 -0.6272959
vt 0 -0.3122954
vt 0 -0.6263108
vt -1 -0.3122954
vt -1 -0.6263108
vt 0 -0.6184595
vt 0 -0.3201448
vt 1 -0.6184595
vt 1 -0.3201448
vt 0 -0.3140133
vt -1 2.789445E-06
vt -1 -0.3140133
vt 0 -0.3061653
vt 0 -0.007850059
vt 1 -0.3061653
vt 1 -0.007850059
vt 5.85 1
vt 6 1
vt 5.85 0
vt 6 0
vt 0.01643419 0.3135854
vt 0.1656127 0.2979061
vt -0.01643419 0.3135854
vt -0.1656127 0.2979061
vt -0.1500001 0
vt 0.065557 0.6237351
vt 0.2122793 0.5925483
vt -0.065557 0.6237351
vt -0.2122793 0.5925483
vt 0.1468303 0.927051
vt 0.289489 0.8806984
vt -0.1468303 0.927051
vt -0.289489 0.8806984
vt 0.2593637 1.22021
vt 0.3963957 1.159199
vt -0.2593637 1.22021
vt -0.3963957 1.159199
vt 0.4019239 1.5
vt 0.5318277 1.425
vt -0.4019239 1.5
vt -0.5318277 1.425
vt 0.5729489 1.763356
vt 0.6943016 1.675188
vt -0.5729489 1.763356
vt -0.6943016 1.675188
vt 0.7705655 2.007392
vt 0.8820374 1.907022
vt -0.7705655 2.007392
vt -0.8820374 1.907022
vt 0.9926083 2.229434
vt 1.092978 2.117963
vt -0.9926083 2.229434
vt -1.092978 2.117963
vt 1.236644 2.427051
vt 1.324812 2.305698
vt -1.236644 2.427051
vt -1.324812 2.305698
vt 1.5 2.598076
vt 1.575 2.468173
vt -1.5 2.598076
vt -1.575 2.468173
vt 1.77979 2.740636
vt 1.840801 2.603605
vt -1.77979 2.740636
vt -1.840801 2.603605
vt 2.072949 2.85317
vt 2.119302 2.710511
vt -2.072949 2.85317
vt -2.119302 2.710511
vt 2.376265 2.934443
vt 2.407452 2.787721
vt -2.376265 2.934443
vt -2.407452 2.787721
vt 2.686415 2.983566
vt 2.702094 2.834387
vt -2.686415 2.983566
vt -2.702094 2.834387
vt 3 3
vt 3 2.85
vt -3 3
vt -3 2.85
vt 3.313586 2.983566
vt 3.297906 2.834387
vt -3.313586 2.983566
vt -3.297906 2.834387
vt 3.623735 2.934443
vt 3.592548 2.787721
vt -3.623735 2.934443
vt -3.592548 2.787721
vt 3.927051 2.85317
vt 3.880698 2.710511
vt -3.927051 2.85317
vt -3.880698 2.710511
vt 4.22021 2.740636
vt 4.159199 2.603605
vt -4.22021 2.740636
vt -4.159199 2.603605
vt 4.5 2.598076
vt 4.425 2.468172
vt -4.5 2.598076
vt -4.425 2.468172
vt 4.763355 2.427051
vt 4.675188 2.305698
vt -4.763355 2.427051
vt -4.675188 2.305698
vt 5.007392 2.229434
vt 4.907022 2.117963
vt -5.007392 2.229434
vt -4.907022 2.117963
vt 5.229434 2.007392
vt 5.117963 1.907022
vt -5.229434 2.007392
vt -5.117963 1.907022
vt 5.427051 1.763355
vt 5.305698 1.675188
vt -5.427051 1.763355
vt -5.305698 1.675188
vt 5.598076 1.5
vt 5.468172 1.425
vt -5.598076 1.5
vt -5.468172 1.425
vt 5.740636 1.22021
vt 5.603604 1.159199
vt -5.740636 1.22021
vt -5.603604 1.159199
vt 5.853169 0.9270511
vt 5.710511 0.8806985
vt -5.853169 0.9270511
vt -5.710511 0.8806985
vt 5.934443 0.6237348
vt 5.787721 0.5925481
vt -5.934443 0.6237348
vt -5.787721 0.5925481
vt 5.983566 0.3135855
vt 5.834387 0.2979062
vt -5.983566 0.3135855
vt -5.834387 0.2979062
vt -6 -2.622683E-07
vt -5.85 -2.491549E-07

vn -0.9986296 0.05233557 0
vn 0.9986296 -0.05233597 0
vn 0 -1 0
vn -0.9876884 0.1564342 0
vn 0.9876884 -0.1564341 0
vn -0.9659258 0.2588192 0
vn 0.9659258 -0.2588194 0
vn -0.9335803 0.3583684 0
vn 0.9335802 -0.3583684 0
vn -0.8910064 0.4539908 0
vn 0.8910068 -0.4539901 0
vn -0.8386708 0.5446387 0
vn 0.8386706 -0.5446389 0
vn -0.777146 0.6293203 0
vn 0.7771458 -0.6293206 0
vn -0.7071064 0.7071071 0
vn 0.7071068 -0.7071068 0
vn -0.6293211 0.7771454 0
vn 0.6293207 -0.7771457 0
vn -0.5446387 0.8386708 0
vn 0.5446391 -0.8386706 0
vn -0.4539902 0.8910067 0
vn 0.4539902 -0.8910066 0
vn -0.3583686 0.9335802 0
vn 0.3583675 -0.9335806 0
vn -0.2588191 0.9659258 0
vn 0.2588195 -0.9659258 0
vn -0.1564342 0.9876884 0
vn 0.1564341 -0.9876884 0
vn -0.05233555 0.9986296 0
vn 0.05233596 -0.9986296 0
vn 0.05233559 0.9986296 0
vn -0.052336 -0.9986296 0
vn 0.1564344 0.9876884 0
vn -0.1564342 -0.9876884 0
vn 0.2588193 0.9659258 0
vn -0.2588195 -0.9659258 0
vn 0.3583686 0.9335802 0
vn -0.3583676 -0.9335806 0
vn 0.4539903 0.8910066 0
vn -0.4539902 -0.8910066 0
vn 0.5446393 0.8386704 0
vn -0.5446398 -0.8386701 0
vn 0.6293196 0.7771466 0
vn -0.6293196 -0.7771466 0
vn 0.7071068 0.7071068 0
vn -0.7071068 -0.7071068 0
vn 0.7771463 0.62932 0
vn -0.7771465 -0.6293197 0
vn 0.8386707 0.5446389 0
vn -0.8386707 -0.5446389 0
vn 0.8910064 0.4539907 0
vn -0.8910066 -0.4539904 0
vn 0.9335803 0.358368 0
vn -0.9335799 -0.3583694 0
vn 0.9659256 0.2588197 0
vn -0.965926 -0.2588184 0
vn 0.9876884 0.1564344 0
vn -0.9876884 -0.1564342 0
vn 0.9986296 0.05233551 0
vn -0.9986296 -0.05233591 0
vn 0 0 1
vn 0 0 -1

usemtl Lit
f 3/3/1 4/4/1 2/2/1 1/1/1
f 7/7/2 8/8/2 6/6/2 5/5/2
f 1/1/3 6/11/3 8/10/3 3/9/3
f 4/14/4 10/15/4 9/13/4 2/12/4
f 12/18/5 7/19/5 5/17/5 11/16/5
f 10/22/6 14/23/6 13/21/6 9/20/6
f 16/26/7 12/27/7 11/25/7 15/24/7
f 14/30/8 18/31/8 17/29/8 13/28/8
f 20/33/9 16/26/9 15/24/9 19/32/9
f 18/36/10 22/37/10 21/35/10 17/34/10
f 24/40/11 20/41/11 19/39/11 23/38/11
f 22/44/12 26/45/12 25/43/12 21/42/12
f 28/48/13 24/49/13 23/47/13 27/46/13
f 26/52/14 30/53/14 29/51/14 25/50/14
f 32/56/15 28/57/15 27/55/15 31/54/15
f 30/60/16 34/61/16 33/59/16 29/58/16
f 36/64/17 32/65/17 31/63/17 35/62/17
f 34/68/18 38/69/18 37/67/18 33/66/18
f 40/72/19 36/73/19 35/71/19 39/70/19
f 38/76/20 42/77/20 41/75/20 37/74/20
f 44/80/21 40/81/21 39/79/21 43/78/21
f 42/84/22 46/85/22 45/83/22 41/82/22
f 48/88/23 44/89/23 43/87/23 47/86/23
f 46/92/24 50/93/24 49/91/24 45/90/24
f 52/96/25 48/97/25 47/95/25 51/94/25
f 50/100/26 54/101/26 53/99/26 49/98/26
f 56/104/27 52/105/27 51/103/27 55/102/27
f 54/108/28 58/109/28 57/107/28 53/106/28
f 60/112/29 56/113/29 55/111/29 59/110/29
f 58/116/30 62/117/30 61/115/30 57/114/30
f 64/120/31 60/121/31 59/119/31 63/118/31
f 62/116/32 66/117/32 65/115/32 61/114/32
f 68/120/33 64/121/33 63/119/33 67/118/33
f 66/108/34 70/109/34 69/107/34 65/106/34
f 72/112/35 68/113/35 67/111/35 71/110/35
f 70/100/36 74/101/36 73/99/36 69/98/36
f 76/104/37 72/105/37 71/103/37 75/102/37
f 74/92/38 78/93/38 77/91/38 73/90/38
f 80/96/39 76/97/39 75/95/39 79/94/39
f 78/84/40 82/85/40 81/83/40 77/82/40
f 84/88/41 80/89/41 79/87/41 83/86/41
f 82/76/42 86/77/42 85/75/42 81/74/42
f 88/80/43 84/81/43 83/79/43 87/78/43
f 86/68/44 90/69/44 89/67/44 85/66/44
f 92/72/45 88/73/45 87/71/45 91/70/45
f 90/60/46 94/61/46 93/59/46 89/58/46
f 96/64/47 92/65/47 91/63/47 95/62/47
f 94/124/48 98/125/48 97/123/48 93/122/48
f 100/128/49 96/129/49 95/127/49 99/126/49
f 98/132/50 102/133/50 101/131/50 97/130/50
f 104/136/51 100/137/51 99/135/51 103/134/51
f 102/140/52 106/141/52 105/139/52 101/138/52
f 108/144/53 104/145/53 103/143/53 107/142/53
f 106/148/54 110/149/54 109/147/54 105/146/54
f 112/152/55 108/153/55 107/151/55 111/150/55
f 110/156/56 114/157/56 113/155/56 109/154/56
f 116/153/57 112/159/57 111/158/57 115/151/57
f 114/162/58 118/163/58 117/161/58 113/160/58
f 120/166/59 116/167/59 115/165/59 119/164/59
f 118/169/60 122/170/60 121/168/60 117/1/60
f 124/173/61 120/174/61 119/172/61 123/171/61
f 123/177/3 121/178/3 122/176/3 124/175/3
f 8/11/62 7/180/62 4/179/62 3/1/62
f 5/182/63 6/183/63 1/1/63 2/181/63
f 7/180/62 12/185/62 10/184/62 4/179/62
f 11/187/63 5/182/63 2/181/63 9/186/63
f 12/185/62 16/189/62 14/188/62 10/184/62
f 15/191/63 11/187/63 9/186/63 13/190/63
f 16/189/62 20/193/62 18/192/62 14/188/62
f 19/195/63 15/191/63 13/190/63 17/194/63
f 20/193/62 24/197/62 22/196/62 18/192/62
f 23/199/63 19/195/63 17/194/63 21/198/63
f 24/197/62 28/201/62 26/200/62 22/196/62
f 27/203/63 23/199/63 21/198/63 25/202/63
f 28/201/62 32/205/62 30/204/62 26/200/62
f 31/207/63 27/203/63 25/202/63 29/206/63
f 32/205/62 36/209/62 34/208/62 30/204/62
f 35/211/63 31/207/63 29/206/63 33/210/63
f 36/209/62 40/213/62 38/212/62 34/208/62
f 39/215/63 35/211/63 33/210/63 37/214/63
f 40/213/62 44/217/62 42/216/62 38/212/62
f 43/219/63 39/215/63 37/214/63 41/218/63
f 44/217/62 48/221/62 46/220/62 42/216/62
f 47/223/63 43/219/63 41/218/63 45/222/63
f 48/221/62 52/225/62 50/224/62 46/220/62
f 51/227/63 47/223/63 45/222/63 49/226/63
f 52/225/62 56/229/62 54/228/62 50/224/62
f 55/231/63 51/227/63 49/226/63 53/230/63
f 56/229/62 60/233/62 58/232/62 54/228/62
f 59/235/63 55/231/63 53/230/63 57/234/63
f 60/233/62 64/237/62 62/236/62 58/232/62
f 63/239/63 59/235/63 57/234/63 61/238/63
f 64/237/62 68/241/62 66/240/62 62/236/62
f 67/243/63 63/239/63 61/238/63 65/242/63
f 68/241/62 72/245/62 70/244/62 66/240/62
f 71/247/63 67/243/63 65/242/63 69/246/63
f 72/245/62 76/249/62 74/248/62 70/244/62
f 75/251/63 71/247/63 69/246/63 73/250/63
f 76/249/62 80/253/62 78/252/62 74/248/62
f 79/255/63 75/251/63 73/250/63 77/254/63
f 80/253/62 84/257/62 82/256/62 78/252/62
f 83/259/63 79/255/63 77/254/63 81/258/63
f 84/257/62 88/261/62 86/260/62 82/256/62
f 87/263/63 83/259/63 81/258/63 85/262/63
f 88/261/62 92/265/62 90/264/62 86/260/62
f 91/267/63 87/263/63 85/262/63 89/266/63
f 92/265/62 96/269/62 94/268/62 90/264/62
f 95/271/63 91/267/63 89/266/63 93/270/63
f 96/269/62 100/273/62 98/272/62 94/268/62
f 99/275/63 95/271/63 93/270/63 97/274/63
f 100/273/62 104/277/62 102/276/62 98/272/62
f 103/279/63 99/275/63 97/274/63 101/278/63
f 104/277/62 108/281/62 106/280/62 102/276/62
f 107/283/63 103/279/63 101/278/63 105/282/63
f 108/281/62 112/285/62 110/284/62 106/280/62
f 111/287/63 107/283/63 105/282/63 109/286/63
f 112/285/62 116/289/62 114/288/62 110/284/62
f 115/291/63 111/287/63 109/286/63 113/290/63
f 116/289/62 120/293/62 118/292/62 114/288/62
f 119/295/63 115/291/63 113/290/63 117/294/63
f 120/293/62 124/177/62 122/178/62 118/292/62
f 123/297/63 119/295/63 117/294/63 121/296/63

